<svg width="1200" height="628" viewBox="0 0 1200 628" fill="none" xmlns="http://www.w3.org/2000/svg">
<g clip-path="url(#clip0_336_68)">
<rect width="1200" height="628" fill="#E6007E"/>
<path d="M460.788 616.848C430.388 636.304 393.908 646.032 351.348 646.032C328.244 646.032 309.7 642.08 295.716 634.176C281.732 626.272 272.612 615.328 268.356 601.344C230.66 631.136 187.796 646.032 139.764 646.032C99.6361 646.032 68.6281 637.824 46.7401 621.408C24.8521 604.992 13.9081 580.976 13.9081 549.36C13.9081 508.624 36.1001 473.968 80.4841 445.392C124.868 416.816 186.58 395.232 265.62 380.64V312.24C265.012 285.488 259.844 266.032 250.116 253.872C240.388 241.104 222.756 234.72 197.22 234.72C182.628 234.72 170.164 237.152 159.828 242.016C149.492 246.272 144.324 251.744 144.324 258.432C144.324 263.296 147.364 269.376 153.444 276.672C158.308 282.752 161.652 287.92 163.476 292.176C165.908 296.432 167.124 302.512 167.124 310.416C167.124 326.224 161.348 339.904 149.796 351.456C138.244 362.4 123.044 367.872 104.196 367.872C84.7401 367.872 69.2361 362.4 57.6841 351.456C46.7401 339.904 41.2681 326.528 41.2681 311.328C41.2681 292.48 48.2601 274.544 62.2441 257.52C76.8361 240.496 99.3321 226.512 129.732 215.568C160.132 204.016 198.132 198.24 243.732 198.24C296.02 198.24 334.02 210.096 357.732 233.808C382.052 256.912 394.212 293.696 394.212 344.16V544.8C394.212 566.688 396.036 581.28 399.684 588.576C403.94 595.872 410.628 599.52 419.748 599.52C427.652 599.52 434.34 598.304 439.812 595.872C445.892 592.832 449.54 591.008 450.756 590.4L460.788 616.848ZM142.5 528.384C142.5 550.272 147.06 566.384 156.18 576.72C165.908 586.448 180.804 591.312 200.868 591.312C220.324 591.312 241.908 582.496 265.62 564.864V418.032C223.06 429.584 191.748 444.176 171.684 461.808C152.228 479.44 142.5 501.632 142.5 528.384ZM784.862 198.24C810.398 198.24 830.158 205.536 844.142 220.128C858.734 234.72 866.03 253.872 866.03 277.584C866.03 297.648 860.558 314.368 849.614 327.744C838.67 341.12 822.254 347.808 800.366 347.808C782.126 347.808 767.534 342.944 756.59 333.216C745.646 323.488 740.174 310.112 740.174 293.088C740.174 280.928 742.606 271.808 747.47 265.728C752.942 259.04 755.678 254.784 755.678 252.96C755.678 251.136 754.766 249.616 752.942 248.4C751.118 246.576 748.686 245.664 745.646 245.664C735.31 245.664 724.366 253.264 712.814 268.464C701.87 283.056 692.446 301.6 684.542 324.096C676.638 346.592 672.686 368.176 672.686 388.848H671.774V560.304C671.774 573.68 673.294 583.408 676.334 589.488C679.982 595.568 686.366 599.824 695.486 602.256C705.214 604.688 720.718 605.904 741.998 605.904V636H483.902V605.904C501.534 605.904 514.302 604.688 522.206 602.256C530.11 599.824 535.278 595.568 537.71 589.488C540.75 583.408 542.27 573.68 542.27 560.304V290.352C542.27 276.368 540.446 267.248 536.798 262.992C533.758 258.128 526.766 255.696 515.822 255.696H485.726V225.6L628.91 202.8H668.126V286.704H670.862C698.83 227.728 736.83 198.24 784.862 198.24ZM1055.9 646.944C1016.38 646.944 986.288 636.304 965.616 615.024C945.552 593.744 935.52 559.696 935.52 512.88V240.192H880.8V210.096C916.064 204.016 947.68 185.472 975.648 154.464C1003.62 123.456 1023.38 87.28 1034.93 45.936H1065.02V207.36H1154.4V240.192H1065.02V507.408C1065.02 536.592 1068.98 558.176 1076.88 572.16C1084.78 585.536 1097.86 592.224 1116.1 592.224C1125.22 592.224 1133.73 590.704 1141.63 587.664C1149.54 584.016 1158.05 579.76 1167.17 574.896L1182.67 600.432C1180.24 602.256 1172.64 607.728 1159.87 616.848C1147.71 625.36 1132.51 632.352 1114.27 637.824C1096.03 643.904 1076.58 646.944 1055.9 646.944Z" fill="#F6A015"/>
<path d="M1060.65 134.158H1058.43V127.874H1042V125.31H1058.43V119.025H1060.65V134.158ZM1060.65 136.545V139.097H1052.94V148.796H1060.65V151.348H1042V148.796H1050.72V139.097H1042V136.545H1060.65ZM1060.65 155.512V169.108H1058.36V157.975H1052.7V168.271H1050.54V157.975H1044.22V169.299H1042V155.512H1060.65ZM1044.16 187.009C1044.16 187.864 1044.25 188.566 1044.42 189.116C1044.75 190.098 1045.39 190.902 1046.33 191.528C1047.08 192.028 1048.05 192.387 1049.22 192.607C1049.93 192.734 1050.58 192.798 1051.18 192.798C1053.49 192.798 1055.28 192.337 1056.56 191.414C1057.84 190.5 1058.48 189.023 1058.48 186.983V182.502H1044.16V187.009ZM1060.65 179.963V187.517C1060.65 190.081 1059.74 192.07 1057.92 193.483C1056.28 194.744 1054.17 195.375 1051.61 195.375C1049.63 195.375 1047.84 195.003 1046.24 194.258C1043.41 192.946 1042 190.69 1042 187.491V179.963H1060.65ZM1060.65 198.879V212.476H1058.36V201.342H1052.7V211.638H1050.54V201.342H1044.22V212.666H1042V198.879H1060.65ZM1060.65 216.221V229.157H1058.36V218.747H1052.7V227.9H1050.48V218.747H1042V216.221H1060.65ZM1060.65 232.445V234.997H1042V232.445H1060.65ZM1060.65 239.11V242.094L1045.54 251.514H1060.65V253.913H1042V251.082L1057.09 241.522H1042V239.11H1060.65ZM1060.65 258.471V261.022H1042V258.471H1060.65ZM1060.65 278.707H1058.43V272.423H1042V269.858H1058.43V263.574H1060.65V278.707ZM1060.65 281.602V284.153H1042V281.602H1060.65ZM1060.65 289.739L1044.77 295.097L1060.65 300.391V303.222L1042 296.417V293.738L1060.65 286.946V289.739ZM1060.65 305.85V319.446H1058.36V308.312H1052.7V318.608H1050.54V308.312H1044.22V319.637H1042V305.85H1060.65ZM1060.65 331.659L1044.77 337.017L1060.65 342.311V345.142L1042 338.337V335.658L1060.65 328.866V331.659ZM1060.65 348.1V350.651H1042V348.1H1060.65ZM1048.02 356.415C1046.96 356.474 1046.1 356.724 1045.44 357.164C1044.2 358.002 1043.59 359.479 1043.59 361.595C1043.59 362.543 1043.72 363.406 1043.99 364.185C1044.52 365.691 1045.46 366.444 1046.81 366.444C1047.83 366.444 1048.55 366.127 1048.98 365.492C1049.41 364.849 1049.77 363.842 1050.09 362.471L1050.66 359.944C1051.03 358.294 1051.44 357.126 1051.89 356.44C1052.67 355.256 1053.83 354.663 1055.38 354.663C1057.06 354.663 1058.43 355.243 1059.51 356.402C1060.58 357.562 1061.12 359.204 1061.12 361.328C1061.12 363.283 1060.65 364.942 1059.7 366.305C1058.76 367.676 1057.25 368.361 1055.18 368.361V365.987C1056.18 365.86 1056.94 365.59 1057.48 365.175C1058.45 364.405 1058.94 363.097 1058.94 361.252C1058.94 359.762 1058.62 358.692 1058 358.04C1057.37 357.388 1056.64 357.062 1055.81 357.062C1054.9 357.062 1054.23 357.443 1053.81 358.205C1053.54 358.704 1053.2 359.834 1052.79 361.595L1052.19 364.21C1051.91 365.471 1051.51 366.444 1051.01 367.13C1050.14 368.315 1048.88 368.907 1047.22 368.907C1045.15 368.907 1043.68 368.154 1042.79 366.647C1041.9 365.149 1041.45 363.406 1041.45 361.417C1041.45 359.098 1042.05 357.283 1043.23 355.971C1044.41 354.659 1046 354.016 1048.02 354.041V356.415ZM1060.65 374.849H1049.12C1047.77 374.849 1046.64 375.103 1045.75 375.61C1044.39 376.364 1043.71 377.633 1043.71 379.419C1043.71 381.56 1044.45 383.016 1045.91 383.786C1046.71 384.201 1047.78 384.408 1049.12 384.408H1060.65V386.973H1050.18C1047.88 386.973 1046.12 386.664 1044.88 386.046C1042.63 384.912 1041.5 382.771 1041.5 379.622C1041.5 376.474 1042.63 374.337 1044.88 373.211C1046.12 372.593 1047.88 372.284 1050.18 372.284H1060.65V374.849ZM1049.64 400.468L1057.88 397.637L1049.64 394.628V400.468ZM1060.65 396.316V399.173L1042 405.939V403.172L1047.59 401.28V393.904L1042 391.886V389.296L1060.65 396.316ZM1060.65 408.237V410.764H1044.22V420.209H1042V408.237H1060.65ZM1061.13 437.043C1061.13 438.795 1060.79 440.31 1060.12 441.588C1059.14 443.441 1057.44 444.576 1055 444.99V442.489C1056.36 442.185 1057.35 441.554 1057.97 440.598C1058.6 439.641 1058.91 438.435 1058.91 436.979C1058.91 435.253 1058.26 433.797 1056.97 432.612C1055.67 431.436 1053.74 430.848 1051.18 430.848C1048.96 430.848 1047.15 431.334 1045.76 432.308C1044.37 433.281 1043.68 434.868 1043.68 437.068C1043.68 438.753 1044.16 440.145 1045.14 441.245C1046.12 442.354 1047.7 442.921 1049.88 442.946V437.106H1051.98V445.295H1042V443.67L1044.4 443.061C1043.46 442.206 1042.81 441.448 1042.44 440.788C1041.82 439.679 1041.5 438.27 1041.5 436.561C1041.5 434.352 1042.22 432.451 1043.65 430.86C1045.44 429.125 1047.91 428.258 1051.04 428.258C1054.16 428.258 1056.65 429.104 1058.49 430.797C1060.25 432.405 1061.13 434.487 1061.13 437.043ZM1060.65 451.96H1049.12C1047.77 451.96 1046.64 452.214 1045.75 452.722C1044.39 453.475 1043.71 454.744 1043.71 456.53C1043.71 458.672 1044.45 460.127 1045.91 460.897C1046.71 461.312 1047.78 461.52 1049.12 461.52H1060.65V464.084H1050.18C1047.88 464.084 1046.12 463.775 1044.88 463.157C1042.63 462.023 1041.5 459.882 1041.5 456.733C1041.5 453.585 1042.63 451.448 1044.88 450.322C1046.12 449.704 1047.88 449.396 1050.18 449.396H1060.65V451.96ZM1060.65 468.578V471.13H1042V468.578H1060.65ZM1044.16 482.403C1044.16 483.258 1044.25 483.961 1044.42 484.511C1044.75 485.493 1045.39 486.297 1046.33 486.923C1047.08 487.422 1048.05 487.782 1049.22 488.002C1049.93 488.129 1050.58 488.192 1051.18 488.192C1053.49 488.192 1055.28 487.731 1056.56 486.809C1057.84 485.895 1058.48 484.418 1058.48 482.378V477.896H1044.16V482.403ZM1060.65 475.357V482.911C1060.65 485.476 1059.74 487.465 1057.92 488.878C1056.28 490.139 1054.17 490.77 1051.61 490.77C1049.63 490.77 1047.84 490.397 1046.24 489.652C1043.41 488.34 1042 486.085 1042 482.886V475.357H1060.65ZM1060.65 494.273V507.87H1058.36V496.736H1052.7V507.032H1050.54V496.736H1044.22V508.061H1042V494.273H1060.65Z" fill="#212121"/>
</g>
<defs>
<clipPath id="clip0_336_68">
<rect width="1200" height="628" fill="white"/>
</clipPath>
</defs>
</svg>
