<svg width="48" height="48" viewBox="0 0 48 48" fill="none" xmlns="http://www.w3.org/2000/svg">
<g clip-path="url(#clip0_23_18)">
<rect width="48" height="48" rx="24" fill="#E6007E"/>
<path d="M18.9786 48.223C17.7452 49.0123 16.2652 49.407 14.5386 49.407C13.6012 49.407 12.8489 49.2467 12.2816 48.926C11.7142 48.6053 11.3442 48.1613 11.1716 47.594C9.64222 48.8027 7.90322 49.407 5.95455 49.407C4.32655 49.407 3.06855 49.074 2.18055 48.408C1.29255 47.742 0.848551 46.7677 0.848551 45.485C0.848551 43.8323 1.74888 42.4263 3.54955 41.267C5.35022 40.1077 7.85389 39.232 11.0606 38.64V35.865C11.0359 34.7797 10.8262 33.9903 10.4316 33.497C10.0369 32.979 9.32155 32.72 8.28555 32.72C7.69355 32.72 7.18789 32.8187 6.76855 33.016C6.34922 33.1887 6.13955 33.4107 6.13955 33.682C6.13955 33.8793 6.26288 34.126 6.50955 34.422C6.70689 34.6687 6.84255 34.8783 6.91655 35.051C7.01522 35.2237 7.06455 35.4703 7.06455 35.791C7.06455 36.4323 6.83022 36.9873 6.36155 37.456C5.89288 37.9 5.27622 38.122 4.51155 38.122C3.72222 38.122 3.09322 37.9 2.62455 37.456C2.18055 36.9873 1.95855 36.4447 1.95855 35.828C1.95855 35.0633 2.24222 34.3357 2.80955 33.645C3.40155 32.9543 4.31422 32.387 5.54755 31.943C6.78089 31.4743 8.32255 31.24 10.1726 31.24C12.2939 31.24 13.8356 31.721 14.7976 32.683C15.7842 33.6203 16.2776 35.1127 16.2776 37.16V45.3C16.2776 46.188 16.3516 46.78 16.4996 47.076C16.6722 47.372 16.9436 47.52 17.3136 47.52C17.6342 47.52 17.9056 47.4707 18.1276 47.372C18.3742 47.2487 18.5222 47.1747 18.5716 47.15L18.9786 48.223ZM6.06555 44.634C6.06555 45.522 6.25055 46.1757 6.62055 46.595C7.01522 46.9897 7.61955 47.187 8.43355 47.187C9.22289 47.187 10.0986 46.8293 11.0606 46.114V40.157C9.33389 40.6257 8.06355 41.2177 7.24955 41.933C6.46022 42.6483 6.06555 43.5487 6.06555 44.634ZM32.4963 31.24C33.5323 31.24 34.3339 31.536 34.9013 32.128C35.4933 32.72 35.7893 33.497 35.7893 34.459C35.7893 35.273 35.5673 35.9513 35.1233 36.494C34.6793 37.0367 34.0133 37.308 33.1253 37.308C32.3853 37.308 31.7933 37.1107 31.3493 36.716C30.9053 36.3213 30.6833 35.7787 30.6833 35.088C30.6833 34.5947 30.7819 34.2247 30.9793 33.978C31.2013 33.7067 31.3123 33.534 31.3123 33.46C31.3123 33.386 31.2753 33.3243 31.2013 33.275C31.1273 33.201 31.0286 33.164 30.9053 33.164C30.4859 33.164 30.0419 33.4723 29.5733 34.089C29.1293 34.681 28.7469 35.4333 28.4263 36.346C28.1056 37.2587 27.9453 38.1343 27.9453 38.973H27.9083V45.929C27.9083 46.4717 27.9699 46.8663 28.0933 47.113C28.2413 47.3597 28.5003 47.5323 28.8703 47.631C29.2649 47.7297 29.8939 47.779 30.7573 47.779V49H20.2863V47.779C21.0016 47.779 21.5196 47.7297 21.8403 47.631C22.1609 47.5323 22.3706 47.3597 22.4693 47.113C22.5926 46.8663 22.6543 46.4717 22.6543 45.929V34.977C22.6543 34.4097 22.5803 34.0397 22.4323 33.867C22.3089 33.6697 22.0253 33.571 21.5813 33.571H20.3603V32.35L26.1693 31.425H27.7603V34.829H27.8713C29.0059 32.4363 30.5476 31.24 32.4963 31.24ZM43.4925 49.444C41.8892 49.444 40.6682 49.0123 39.8295 48.149C39.0155 47.2857 38.6085 45.9043 38.6085 44.005V32.942H36.3885V31.721C37.8192 31.4743 39.1018 30.722 40.2365 29.464C41.3712 28.206 42.1728 26.7383 42.6415 25.061H43.8625V31.61H47.4885V32.942H43.8625V43.783C43.8625 44.967 44.0228 45.8427 44.3435 46.41C44.6642 46.9527 45.1945 47.224 45.9345 47.224C46.3045 47.224 46.6498 47.1623 46.9705 47.039C47.2912 46.891 47.6365 46.7183 48.0065 46.521L48.6355 47.557C48.5368 47.631 48.2285 47.853 47.7105 48.223C47.2172 48.5683 46.6005 48.852 45.8605 49.074C45.1205 49.3207 44.3312 49.444 43.4925 49.444Z" fill="#F6A015"/>
</g>
<defs>
<clipPath id="clip0_23_18">
<rect width="48" height="48" rx="24" fill="white"/>
</clipPath>
</defs>
</svg>
